<?xml version="1.0" encoding="UTF-8"?><svg id="a" xmlns="http://www.w3.org/2000/svg" viewBox="0 0 100 100"><path d="m15.62,26.38v-10.08h41.37c6.33,0,11.3.74,14.92,2.22,3.62,1.48,6.4,3.6,8.35,6.37,1.95,2.77,2.92,5.8,2.92,9.11,0,2.4-.52,4.68-1.54,6.84s-2.51,4.06-4.45,5.72c-1.94,1.65-4.49,3.02-7.67,4.1,3.41.87,6.02,1.83,7.83,2.87,2.61,1.46,4.68,3.51,6.21,6.13,1.53,2.63,2.3,5.56,2.3,8.8,0,3.86-1.17,7.42-3.49,10.68s-5.62,5.73-9.88,7.44c-4.26,1.71-10.49,2.56-18.69,2.56H15.62v-10.08h2.87c1.91,0,3.21-.16,3.89-.5.68-.33,1.16-.8,1.44-1.41.28-.61.42-1.97.42-4.1v-40.62c0-2.16-.14-3.53-.42-4.12-.28-.59-.76-1.06-1.44-1.41-.68-.35-1.98-.52-3.89-.52h-2.87Zm26.63,19.42h7.99c4.18,0,7.26-.35,9.27-1.04,2-.7,3.51-1.75,4.52-3.16,1.01-1.41,1.51-3.04,1.51-4.88s-.48-3.55-1.44-4.91c-.96-1.36-2.34-2.32-4.15-2.9-1.81-.57-5.05-.86-9.71-.86h-7.99v17.75Zm0,10.7v15.77c.03,2.23.12,3.53.26,3.92.17.49.46.83.86,1.02.4.19,1.48.29,3.26.29h5.31c3.09,0,5.65-.29,7.69-.86,2.03-.57,3.76-1.77,5.18-3.58,1.42-1.81,2.14-3.99,2.14-6.53,0-2.16-.5-3.99-1.51-5.48-1.01-1.5-2.52-2.63-4.53-3.39s-5.09-1.15-9.22-1.15h-9.43Z"/><rect width="100" height="100" fill="none"/></svg>